<?xml version="1.0" encoding="UTF-8"?>
<svg id="Layer_2" data-name="Layer 2" xmlns="http://www.w3.org/2000/svg" viewBox="0 0 370.49 122.02">
  <defs>
    <style>
      .cls-1 {
        fill: #231f20;
      }
    </style>
  </defs>
  <g id="Layer_1-2" data-name="Layer 1">
    <g>
      <g>
        <path class="cls-1" d="M47.78,15.71h8.68l22.18,37.3V15.71h5.75v45.11h-8l-22.93-38.3v38.3h-5.69V15.71Z"/>
        <path class="cls-1" d="M96.27,15.71h6.25v45.11h-6.25V15.71Z"/>
        <path class="cls-1" d="M132.58,60.82h-6.87l-16.06-45.11h6.94l12.81,38.55,13.5-38.55h6.31l-16.62,45.11Z"/>
        <path class="cls-1" d="M155.83,15.71h28.3v5.31h-22.05v14.06h20.99v5.25h-20.99v14.99h22.55v5.5h-28.8V15.71Z"/>
        <path class="cls-1" d="M194.63,15.71h16.12c2.31,0,7.06,0,10.37,2.12,3.37,2.12,5,5.56,5,9.18,0,3.19-1.19,6-3.19,8s-3.94,2.56-5.31,2.94c4.31,1.12,6.25,3.06,6.87,8.68.62,5.31,1.06,9.18,2.81,14.18h-6.69c-1-3-1.62-8.5-2.06-11.93-.75-6.56-2.31-8.43-9.87-8.43h-7.87v20.37h-6.19V15.71ZM200.69,35.14h9.87c.69,0,4.25,0,5.94-1,.87-.5,3.06-2.12,3.06-5.87,0-7.31-6.5-7.31-9-7.31h-9.87v14.18Z"/>
        <path class="cls-1" d="M240.77,47.64c.12,3.12.5,8.93,10.87,8.93,9.37,0,10.56-5.81,10.56-8.06,0-5.06-4.06-6.06-10.37-7.62-6.87-1.69-9.93-2.44-12.25-4-3.69-2.5-4.69-5.87-4.69-8.87,0-9.18,8.68-13.18,17.18-13.18,3,0,9.06.5,12.68,4.44,2.5,2.75,2.62,5.81,2.75,7.68h-6.5c-.31-5.62-5.06-6.87-9.5-6.87-6.25,0-10,2.81-10,7.31,0,4,2.62,5.37,8.12,6.69,10.75,2.75,11.93,3,14.56,4.75,4.19,2.75,4.5,7.12,4.5,9,0,8-6.25,14.06-17.81,14.06-3.44,0-10.43-.56-14-5.12-2.56-3.31-2.62-6.94-2.62-9.12h6.5Z"/>
        <path class="cls-1" d="M290.59,15.71h6.69l18.24,45.11h-6.81l-4.87-11.75h-20.93l-4.87,11.75h-6.44l18.99-45.11ZM284.9,44.02h17.06l-8.31-22.12-8.75,22.12Z"/>
        <path class="cls-1" d="M321.32,15.71h6.19v39.55h20.99v5.56h-27.18V15.71Z"/>
        <path class="cls-1" d="M6.25,75.84v27.93c0,4.81,1.06,6.81,2,8.12,2.81,3.75,7.18,4.44,10.31,4.44,12.18,0,12.18-9.56,12.18-12.81v-27.68h6.06v27.8c0,2.44-.06,7.5-3.69,12-4.44,5.56-11.31,6.25-14.56,6.25-4.25,0-11.75-1.19-15.93-7.18-1.37-2-2.62-4.62-2.62-11.37v-27.49h6.25Z"/>
        <path class="cls-1" d="M47.78,75.84h8.68l22.18,37.3v-37.3h5.75v45.11h-8l-22.93-38.3v38.3h-5.69v-45.11Z"/>
        <path class="cls-1" d="M96.27,75.84h6.25v45.11h-6.25v-45.11Z"/>
        <path class="cls-1" d="M132.58,120.95h-6.87l-16.06-45.11h6.94l12.81,38.55,13.5-38.55h6.31l-16.62,45.11Z"/>
        <path class="cls-1" d="M155.83,75.84h28.3v5.31h-22.05v14.06h20.99v5.25h-20.99v14.99h22.55v5.5h-28.8v-45.11Z"/>
        <path class="cls-1" d="M194.63,75.84h16.12c2.31,0,7.06,0,10.37,2.12,3.37,2.12,5,5.56,5,9.18,0,3.19-1.19,6-3.19,8s-3.94,2.56-5.31,2.94c4.31,1.12,6.25,3.06,6.87,8.68.62,5.31,1.06,9.18,2.81,14.18h-6.69c-1-3-1.62-8.5-2.06-11.93-.75-6.56-2.31-8.43-9.87-8.43h-7.87v20.37h-6.19v-45.11ZM200.69,95.27h9.87c.69,0,4.25,0,5.94-1,.87-.5,3.06-2.12,3.06-5.87,0-7.31-6.5-7.31-9-7.31h-9.87v14.18Z"/>
        <path class="cls-1" d="M240.77,107.77c.12,3.12.5,8.93,10.87,8.93,9.37,0,10.56-5.81,10.56-8.06,0-5.06-4.06-6.06-10.37-7.62-6.87-1.69-9.93-2.44-12.25-4-3.69-2.5-4.69-5.87-4.69-8.87,0-9.18,8.68-13.18,17.18-13.18,3,0,9.06.5,12.68,4.44,2.5,2.75,2.62,5.81,2.75,7.68h-6.5c-.31-5.62-5.06-6.87-9.5-6.87-6.25,0-10,2.81-10,7.31,0,4,2.62,5.37,8.12,6.69,10.75,2.75,11.93,3,14.56,4.75,4.19,2.75,4.5,7.12,4.5,9,0,8-6.25,14.06-17.81,14.06-3.44,0-10.43-.56-14-5.12-2.56-3.31-2.62-6.94-2.62-9.12h6.5Z"/>
        <path class="cls-1" d="M277.78,75.84h6.25v45.11h-6.25v-45.11Z"/>
        <path class="cls-1" d="M306.24,120.95v-39.8h-15.12v-5.31h36.42v5.31h-15.12v39.8h-6.19Z"/>
        <path class="cls-1" d="M346.56,103.21l-17.62-27.37h7.75l13.31,22.12,13.5-22.12h7l-17.62,27.68v17.43h-6.31v-17.74Z"/>
      </g>
      <path class="cls-1" d="M40.82,13.09l3.31-3.31L34.34,0l-3.59,3.59,6.06,6.06-6.06,6.06h0v27.69c0,3.25,0,12.81-12.19,12.81-3.13,0-7.5-.69-10.31-4.44-.94-1.31-2-3.31-2-8.13V15.71H0v27.5C0,49.96,1.25,52.59,2.63,54.59c4.19,6,11.69,7.19,15.94,7.19,3.25,0,10.13-.69,14.56-6.25,3.63-4.5,3.69-9.56,3.69-12v-26.42l4.01-4.01Z"/>
    </g>
  </g>
</svg>